Coordinates
version=1
nRows=6
nColumns=34
inDegrees=yes

Units are S.I. units (second, meters, Newtons, ...)
If the header above contains a line with 'inDegrees', this indicates whether rotational values are in degrees (yes) or radians (no).

endheader
time	pelvis_tilt	pelvis_list	pelvis_rotation	pelvis_tx	pelvis_ty	pelvis_tz	hip_flexion_r	hip_adduction_r	hip_rotation_r	knee_angle_r	ankle_angle_r	subtalar_angle_r	mtp_angle_r	hip_flexion_l	hip_adduction_l	hip_rotation_l	knee_angle_l	ankle_angle_l	subtalar_angle_l	mtp_angle_l	lumbar_extension	lumbar_bending	lumbar_rotation	arm_flex_r	arm_add_r	arm_rot_r	elbow_flex_r	pro_sup_r	arm_flex_l	arm_add_l	arm_rot_l	elbow_flex_l	pro_sup_l
      4.00000000	    -12.48293851	    -13.25919859	     -6.96944019	     -6.94337292	      0.85573871	      0.26196542	     48.66948758	     19.81815010	     -7.67000340	     48.03122524	      0.14117016	    -35.00000000	      0.00000000	     24.12673635	    -15.23273812	     -2.82502685	     66.86936734	    -45.71012589	    -21.43344877	      0.00000000	     -5.17066398	     12.41807604	     -0.43746188	   -169.68247241	   -131.07764763	    112.58410715	    144.22018091	     43.27652025	   -355.90942841	      9.89866694	   -532.62123672	      0.00000000	      0.00000000
      4.01666670	    -15.01553048	    -10.20864369	     -8.75623593	     -6.90451141	      0.84643655	      0.26285345	     54.02826494	     15.41320206	    -11.04598286	     46.91057389	     -3.94548769	    -35.00000000	      0.00000000	     31.36410619	    -14.40688462	     -3.33343053	     74.43127678	    -44.71554957	    -24.90194643	      0.00000000	      1.44638741	      7.52237404	      9.26028562	   -186.22945128	   -132.78326073	     95.70298327	    143.38367851	     48.35396991	   -322.96921349	     12.41818102	   -555.20530515	      0.00000000	      0.00000000
      4.03333330	    -14.92142731	     -6.23342468	    -10.85504641	     -6.85662099	      0.84532176	      0.26663158	     56.14872786	     10.98631717	    -13.75199143	     45.68247869	     -6.43426975	    -35.00000000	      0.00000000	     33.57884723	    -13.33526893	     -5.87364034	     79.04167603	    -33.76158426	    -32.69538252	      0.00000000	     -3.33416702	      1.29827024	      4.50383367	   -176.12068147	   -135.38576787	    102.49539237	    144.12663053	     50.13215676	   -297.01482535	      5.22132120	   -572.95779513	      0.00000000	      0.00000000
      4.05000000	    -16.33191886	     -1.93017599	    -11.87155953	     -6.79926278	      0.84851016	      0.26821512	     58.57066053	      5.67625232	    -18.53858076	     42.68278249	     -7.69512876	    -35.00000000	      0.00000000	     35.31116806	    -10.39170959	     -6.82064178	     76.69118245	     -9.93323086	    -35.00000000	      0.00000000	     -4.72833904	     -1.78283196	     -9.26186308	   -156.25562006	   -141.49609038	    127.67624324	    145.97714724	     55.08835740	   -283.87028917	    -13.12719189	   -572.95779513	      0.00000000	      0.00000000
      4.06666670	    -17.52069275	      1.98000772	    -11.69127418	     -6.73956725	      0.85701634	      0.26905515	     58.58838448	      0.42873572	    -27.56878687	     35.82050955	     -0.99013202	    -35.00000000	      0.00000000	     35.45077786	     -6.02989970	     -5.09746292	     72.04647837	      4.81078909	    -35.00000000	      0.00000000	     -6.49396835	     -4.27022420	    -19.56298194	   -149.05741173	   -147.98101882	    135.68509853	    146.74540244	     60.62683040	   -275.38208815	    -27.51486889	   -572.95779513	      0.00000000	      0.00000000
      4.08333330	    -20.45600166	      6.07304132	    -10.73220940	     -6.68207205	      0.86420895	      0.27246547	     59.07055029	     -2.36431965	    -37.31266331	     24.84679188	      2.75834502	    -35.00000000	      0.00000000	     36.22320580	     -0.95952559	     -1.95033543	     64.87453358	      8.74371809	    -35.00000000	      0.00000000	     -5.87955564	     -8.06154627	    -27.15202221	   -147.71862924	   -153.41511690	    134.28542920	    146.07880016	     61.87888036	   -267.73019874	    -37.17638582	   -572.95779513	      1.34033911	      0.00000000
